<?xml version="1.0" encoding="UTF-8"?>
<svg version="1.1" xmlns="http://www.w3.org/2000/svg" width="128" height="128">
<path d="M0 0 C42.24 0 84.48 0 128 0 C128 42.24 128 84.48 128 128 C85.76 128 43.52 128 0 128 C0 85.76 0 43.52 0 0 Z " fill="#FDFDFE" transform="translate(0,0)"/>
<path d="M0 0 C4.70588235 0.70588235 4.70588235 0.70588235 6 2 C6.29386153 5.72224599 6.14809171 6.77786243 4 10 C-1.9983439 11.49958598 -5.98552731 10.88758934 -11.875 9.0625 C-19.35018334 6.74817679 -26.785811 4.976902 -34.0625 8.75 C-37.51849499 11.26989801 -37.51849499 11.26989801 -39 15 C-39.13971419 17.69079175 -39.08997749 20.3006752 -39 23 C-38.88785156 22.00419922 -38.88785156 22.00419922 -38.7734375 20.98828125 C-38.09908061 16.45951196 -37.43534871 13.57282725 -34.625 9.875 C-29.35326945 6.33108544 -22.74706422 7.29258227 -16.80419922 8.41455078 C-13.65742213 9.08121301 -10.5260297 9.78821289 -7.40722656 10.57592773 C0.11134528 12.4455947 6.11390544 12.85621295 13 9 C14.04289755 6.93109581 14.04289755 6.93109581 14 5 C13.34 5.33 12.68 5.66 12 6 C12 6.66 12 7.32 12 8 C11.34 8 10.68 8 10 8 C10 7.34 10 6.68 10 6 C9.34 6 8.68 6 8 6 C8.66 4.68 9.32 3.36 10 2 C12.375 1.875 12.375 1.875 15 2 C17 4 17 4 17.0625 7.375 C16 11 16 11 13.25 13.4375 C4.37978598 17.58531263 -5.92097984 14.89160125 -14.91162109 12.42382812 C-20.47504885 10.9310392 -25.7579999 10.0483161 -31.421875 11.7109375 C-33.58983101 13.48179266 -33.78258532 14.89841434 -34.25 17.625 C-34.39953125 18.44226563 -34.5490625 19.25953125 -34.703125 20.1015625 C-34.80109375 20.72804688 -34.8990625 21.35453125 -35 22 C-34.34 22 -33.68 22 -33 22 C-33.33 20.35 -33.66 18.7 -34 17 C-28.48654319 16.9003823 -22.97362172 16.8281809 -17.45947266 16.78027344 C-15.58763491 16.76028137 -13.71585862 16.73307832 -11.84423828 16.69824219 C9.92245637 16.30353946 9.92245637 16.30353946 19.375 23.3125 C25.84577433 29.93734039 26.44367991 34.46968518 26.43359375 43.59765625 C25.96266365 47.29297263 24.84328768 49.78769229 23 53 C22.34 53 21.68 53 21 53 C20.773125 53.598125 20.54625 54.19625 20.3125 54.8125 C18.01562761 58.64062066 14.45017251 59.81045368 10.4375 61.5 C7.0792866 62.74998593 7.0792866 62.74998593 5.125 64.6875 C1.71014611 66.79667446 -2.08255251 66.41319933 -6 66 C-7.64863668 64.35136332 -7.43756431 62.32490487 -7.6875 60.0625 C-7.79449219 59.16660156 -7.90148438 58.27070312 -8.01171875 57.34765625 C-8 55 -8 55 -6 53 C-2.6713547 52.93794802 0.61015797 53.1346457 3.93359375 53.3203125 C7.06390275 53.31571538 7.06390275 53.31571538 8.84765625 51.1796875 C10.11638402 48.92389835 10.11638402 48.92389835 11 46 C8.48916886 47.25541557 8.12874554 48.50063488 7 51 C6.34 51 5.68 51 5 51 C5 50.34 5 49.68 5 49 C4.34 49 3.68 49 3 49 C3.33 46.69 3.66 44.38 4 42 C2.34822227 43.65177773 1.82747709 45.84855958 1 48 C0.01 47.505 0.01 47.505 -1 47 C-1 45.35 -1 43.7 -1 42 C-1.99 41.505 -1.99 41.505 -3 41 C-3.28875 41.598125 -3.5775 42.19625 -3.875 42.8125 C-5 45 -5 45 -7 48 C-5.68 48.33 -4.36 48.66 -3 49 C-3 49.66 -3 50.32 -3 51 C-3.9075 50.979375 -4.815 50.95875 -5.75 50.9375 C-8.42672588 50.9889755 -10.46988052 51.2215017 -13 52 C-14.32 50.35 -15.64 48.7 -17 47 C-17.33 47.99 -17.66 48.98 -18 50 C-19.485 49.505 -19.485 49.505 -21 49 C-21.25 43.375 -21.25 43.375 -19 40 C-20.051875 39.7525 -21.10375 39.505 -22.1875 39.25 C-25.85143467 38.21262091 -28.08464227 36.46684116 -31 34 C-31.99 33.525625 -32.98 33.05125 -34 32.5625 C-38.37974721 30.28138166 -41.42093188 27.73720435 -43 23 C-43.59197199 17.17894211 -42.99872086 13.5941182 -39.60546875 8.765625 C-36.25614376 5.08218243 -32.58356956 3.37903972 -27.68359375 2.66015625 C-21.81764574 2.42476508 -16.66851611 3.78005002 -11.05078125 5.33203125 C-6.35591352 6.35997284 -1.77800962 6.25394933 3 6 C3.33 5.01 3.66 4.02 4 3 C3.34 3.33 2.68 3.66 2 4 C2 4.66 2 5.32 2 6 C1.34 6 0.68 6 0 6 C-0.38218767 4.34385343 -0.71395102 2.67542976 -1 1 C-0.67 0.67 -0.34 0.34 0 0 Z " fill="#38185A" transform="translate(71,15)"/>
<path d="M0 0 C4.70588235 0.70588235 4.70588235 0.70588235 6 2 C6.29386153 5.72224599 6.14809171 6.77786243 4 10 C-1.9983439 11.49958598 -5.98552731 10.88758934 -11.875 9.0625 C-19.35018334 6.74817679 -26.785811 4.976902 -34.0625 8.75 C-37.51849499 11.26989801 -37.51849499 11.26989801 -39 15 C-39.13971419 17.69079175 -39.08997749 20.3006752 -39 23 C-38.88785156 22.00419922 -38.88785156 22.00419922 -38.7734375 20.98828125 C-38.09908061 16.45951196 -37.43534871 13.57282725 -34.625 9.875 C-29.35326945 6.33108544 -22.74706422 7.29258227 -16.80419922 8.41455078 C-13.65742213 9.08121301 -10.5260297 9.78821289 -7.40722656 10.57592773 C0.11134528 12.4455947 6.11390544 12.85621295 13 9 C14.04289755 6.93109581 14.04289755 6.93109581 14 5 C13.34 5.33 12.68 5.66 12 6 C12 6.66 12 7.32 12 8 C11.34 8 10.68 8 10 8 C10 7.34 10 6.68 10 6 C9.34 6 8.68 6 8 6 C8.66 4.68 9.32 3.36 10 2 C12.375 1.875 12.375 1.875 15 2 C17 4 17 4 17.0625 7.375 C16 11 16 11 13.25 13.4375 C4.37978598 17.58531263 -5.92097984 14.89160125 -14.91162109 12.42382812 C-20.38208263 10.95598406 -25.95179426 9.9057723 -31.4375 11.875 C-33.15893274 12.93074101 -33.15893274 12.93074101 -34 15 C-34.06996014 16.70702735 -34.08440154 18.41668003 -34.0625 20.125 C-34.04896484 21.49011719 -34.04896484 21.49011719 -34.03515625 22.8828125 C-34.02355469 23.58148438 -34.01195312 24.28015625 -34 25 C-31.69 25.33 -29.38 25.66 -27 26 C-27 26.66 -27 27.32 -27 28 C-28.65 28 -30.3 28 -32 28 C-30.17251097 30.46313739 -28.77023784 31.83428618 -25.73046875 32.48828125 C-23.48520654 32.72518293 -21.25544422 32.90361349 -19 33 C-19 32.34 -19 31.68 -19 31 C-18.01 31.33 -17.02 31.66 -16 32 C-16 32.66 -16 33.32 -16 34 C-17.485 34.495 -17.485 34.495 -19 35 C-12.37864751 35.36964608 -12.37864751 35.36964608 -6 33.875 C-3.41844582 31.45479296 -2.78368561 29.41971903 -2 26 C-1.84188612 22.94729537 -1.84188612 22.94729537 -3 20 C-7.29 20 -11.58 20 -16 20 C-15.01 20.66 -14.02 21.32 -13 22 C-12.8125 24.625 -12.8125 24.625 -13 27 C-13.66 27.33 -14.32 27.66 -15 28 C-15.66 26.02 -16.32 24.04 -17 22 C-18.65 22 -20.3 22 -22 22 C-22.33 23.65 -22.66 25.3 -23 27 C-23.33 27 -23.66 27 -24 27 C-24.04254356 25.00045254 -24.04080783 22.99958364 -24 21 C-23.67 20.67 -23.34 20.34 -23 20 C-25.64 19.67 -28.28 19.34 -31 19 C-31 18.67 -31 18.34 -31 18 C-19.12 18 -7.24 18 5 18 C5 18.33 5 18.66 5 19 C3.02 19 1.04 19 -1 19 C-0.34 19.99 0.32 20.98 1 22 C1.265625 24.8125 1.265625 24.8125 1.25 28 C1.25773437 29.5778125 1.25773437 29.5778125 1.265625 31.1875 C1 34 1 34 -1 37 C1.31 37.33 3.62 37.66 6 38 C5.67 38.99 5.34 39.98 5 41 C4.34 41 3.68 41 3 41 C2.34 43.31 1.68 45.62 1 48 C0.01 47.505 0.01 47.505 -1 47 C-1 45.35 -1 43.7 -1 42 C-1.99 41.505 -1.99 41.505 -3 41 C-3.28875 41.598125 -3.5775 42.19625 -3.875 42.8125 C-5 45 -5 45 -7 48 C-5.68 48.33 -4.36 48.66 -3 49 C-3 49.66 -3 50.32 -3 51 C-3.9075 50.979375 -4.815 50.95875 -5.75 50.9375 C-8.42672588 50.9889755 -10.46988052 51.2215017 -13 52 C-14.32 50.35 -15.64 48.7 -17 47 C-17.33 47.99 -17.66 48.98 -18 50 C-19.485 49.505 -19.485 49.505 -21 49 C-21.25 43.375 -21.25 43.375 -19 40 C-20.051875 39.7525 -21.10375 39.505 -22.1875 39.25 C-25.85143467 38.21262091 -28.08464227 36.46684116 -31 34 C-31.99 33.525625 -32.98 33.05125 -34 32.5625 C-38.37974721 30.28138166 -41.42093188 27.73720435 -43 23 C-43.59197199 17.17894211 -42.99872086 13.5941182 -39.60546875 8.765625 C-36.25614376 5.08218243 -32.58356956 3.37903972 -27.68359375 2.66015625 C-21.81764574 2.42476508 -16.66851611 3.78005002 -11.05078125 5.33203125 C-6.35591352 6.35997284 -1.77800962 6.25394933 3 6 C3.33 5.01 3.66 4.02 4 3 C3.34 3.33 2.68 3.66 2 4 C2 4.66 2 5.32 2 6 C1.34 6 0.68 6 0 6 C-0.38218767 4.34385343 -0.71395102 2.67542976 -1 1 C-0.67 0.67 -0.34 0.34 0 0 Z M10 21 C10.33 21 10.66 21 11 21 C11 25.29 11 29.58 11 34 C13.475 34.99 13.475 34.99 16 36 C13.75 38.0625 13.75 38.0625 11 40 C8.6875 39.75 8.6875 39.75 7 39 C7 35 7 35 7.9375 32.25 C9.17918468 28.45190568 9.58937383 24.96938631 10 21 Z " fill="#321058" transform="translate(71,15)"/>
<path d="M0 0 C1.17949219 0.01804687 2.35898438 0.03609375 3.57421875 0.0546875 C4.92966797 0.08949219 4.92966797 0.08949219 6.3125 0.125 C6.10753906 0.89070313 5.90257812 1.65640625 5.69140625 2.4453125 C4.97952643 5.32308209 4.97952643 5.32308209 7.25 8 C10.1645825 12.41603409 9.78467353 15.81659607 8.75 20.875 C8.09109647 23.27993756 8.09109647 23.27993756 9.3125 26.125 C8.6525 26.125 7.9925 26.125 7.3125 26.125 C7.3125 26.785 7.3125 27.445 7.3125 28.125 C-5.91938406 26.52113527 -5.91938406 26.52113527 -9.6875 22.125 C-11 19.375 -11 19.375 -11.6875 17.125 C-11.92984375 17.69089844 -12.1721875 18.25679687 -12.421875 18.83984375 C-12.75703125 19.57332031 -13.0921875 20.30679688 -13.4375 21.0625 C-13.92476562 22.15884766 -13.92476562 22.15884766 -14.421875 23.27734375 C-15.6875 25.125 -15.6875 25.125 -17.71875 25.96875 C-19.6875 26.125 -19.6875 26.125 -21.4375 24.6875 C-21.85 24.171875 -22.2625 23.65625 -22.6875 23.125 C-23.3475 24.115 -24.0075 25.105 -24.6875 26.125 C-27.3061137 25.7638119 -28.44605967 25.39058437 -30.25 23.40625 C-31.86203703 20.84801732 -32.36724404 18.84341945 -32.875 15.875 C-33.03355469 14.98296875 -33.19210938 14.0909375 -33.35546875 13.171875 C-33.46503906 12.49640625 -33.57460938 11.8209375 -33.6875 11.125 C-32.0375 10.795 -30.3875 10.465 -28.6875 10.125 C-28.3575 11.775 -28.0275 13.425 -27.6875 15.125 C-27.0275 15.125 -26.3675 15.125 -25.6875 15.125 C-25.0275 13.805 -24.3675 12.485 -23.6875 11.125 C-21.75 11.5 -21.75 11.5 -19.6875 12.125 C-19.3575 12.785 -19.0275 13.445 -18.6875 14.125 C-18.295625 13.485625 -17.90375 12.84625 -17.5 12.1875 C-15.30277704 9.68721181 -13.92958567 9.47549575 -10.6875 9.125 C-10.584375 8.01125 -10.48125 6.8975 -10.375 5.75 C-10.148125 4.55375 -9.92125 3.3575 -9.6875 2.125 C-6.05554504 -0.29630331 -4.30400652 -0.08522785 0 0 Z " fill="#7B668E" transform="translate(90.6875,87.875)"/>
<path d="M0 0 C4.70588235 0.70588235 4.70588235 0.70588235 6 2 C6.29386153 5.72224599 6.14809171 6.77786243 4 10 C-1.9983439 11.49958598 -5.98552731 10.88758934 -11.875 9.0625 C-19.35018334 6.74817679 -26.785811 4.976902 -34.0625 8.75 C-37.51849499 11.26989801 -37.51849499 11.26989801 -39 15 C-39.13971419 17.69079175 -39.08997749 20.3006752 -39 23 C-38.88785156 22.00419922 -38.88785156 22.00419922 -38.7734375 20.98828125 C-38.09908061 16.45951196 -37.43534871 13.57282725 -34.625 9.875 C-29.35326945 6.33108544 -22.74706422 7.29258227 -16.80419922 8.41455078 C-13.65742213 9.08121301 -10.5260297 9.78821289 -7.40722656 10.57592773 C0.11134528 12.4455947 6.11390544 12.85621295 13 9 C14.04289755 6.93109581 14.04289755 6.93109581 14 5 C13.34 5.33 12.68 5.66 12 6 C12 6.66 12 7.32 12 8 C11.34 8 10.68 8 10 8 C10 7.34 10 6.68 10 6 C9.34 6 8.68 6 8 6 C8.66 4.68 9.32 3.36 10 2 C12.375 1.875 12.375 1.875 15 2 C17 4 17 4 17.0625 7.375 C16 11 16 11 13.25 13.4375 C4.37978598 17.58531263 -5.92097984 14.89160125 -14.91162109 12.42382812 C-20.38208263 10.95598406 -25.95179426 9.9057723 -31.4375 11.875 C-33.15893274 12.93074101 -33.15893274 12.93074101 -34 15 C-34.06996014 16.70702735 -34.08440154 18.41668003 -34.0625 20.125 C-34.04896484 21.49011719 -34.04896484 21.49011719 -34.03515625 22.8828125 C-34.02355469 23.58148438 -34.01195312 24.28015625 -34 25 C-31.69 25.33 -29.38 25.66 -27 26 C-27 26.66 -27 27.32 -27 28 C-28.9914056 28.38133299 -30.99279077 28.71325582 -33 29 C-33.33 28.67 -33.66 28.34 -34 28 C-34 29.32 -34 30.64 -34 32 C-37.37082558 30.55536047 -39.58037292 28.75336875 -42 26 C-43.51957394 21.44127819 -43.9048513 17.33823723 -42.1640625 12.83984375 C-39.68378886 8.38700349 -36.94163821 5.60571233 -32.22265625 3.62109375 C-24.84743027 1.56017823 -18.23898334 3.34618554 -11.05078125 5.33203125 C-6.35591352 6.35997284 -1.77800962 6.25394933 3 6 C3.33 5.01 3.66 4.02 4 3 C3.34 3.33 2.68 3.66 2 4 C2 4.66 2 5.32 2 6 C1.34 6 0.68 6 0 6 C-0.38218767 4.34385343 -0.71395102 2.67542976 -1 1 C-0.67 0.67 -0.34 0.34 0 0 Z " fill="#4B3265" transform="translate(71,15)"/>
<path d="M0 0 C13.2 0 26.4 0 40 0 C40 0.33 40 0.66 40 1 C30.76 1.33 21.52 1.66 12 2 C12 2.66 12 3.32 12 4 C12.78375 3.95875 13.5675 3.9175 14.375 3.875 C17 4 17 4 19 6 C19.625 8.125 19.625 8.125 20 10 C20.25069913 7.62570704 20.25069913 7.62570704 20 5 C18.54429413 3.3355878 18.54429413 3.3355878 17 2 C19.26921536 1.86510609 21.5407067 1.76806005 23.8125 1.6875 C25.70935547 1.60048828 25.70935547 1.60048828 27.64453125 1.51171875 C31 2 31 2 33.01171875 4.33203125 C34.3531328 7.95331899 33.20230137 9.5144767 31.75 13 C29.70011149 16.51409459 28.80531157 17.57300816 25 19 C21.31856357 19.23365958 17.68300054 19.17415239 14 19 C14.33 18.34 14.66 17.68 15 17 C15.99 17 16.98 17 18 17 C17.01 16.01 16.02 15.02 15 14 C15 14.66 15 15.32 15 16 C6.87371744 16.46882399 6.87371744 16.46882399 3.4375 14.625 C2 13 2 13 2 11 C3.65 11 5.3 11 7 11 C7 10.34 7 9.68 7 9 C4.69 8.67 2.38 8.34 0 8 C0 5.36 0 2.72 0 0 Z " fill="#754AAD" transform="translate(37,32)"/>
<path d="M0 0 C2.5 0.125 2.5 0.125 3.5 1.125 C3.57319621 3.82154854 3.59242537 6.49191458 3.5625 9.1875 C3.55798828 9.94611328 3.55347656 10.70472656 3.54882812 11.48632812 C3.5370068 13.36591871 3.51907078 15.24546899 3.5 17.125 C2.84 17.125 2.18 17.125 1.5 17.125 C1.83 17.785 2.16 18.445 2.5 19.125 C3.49 19.125 4.48 19.125 5.5 19.125 C5.396875 18.238125 5.29375 17.35125 5.1875 16.4375 C5.5 13.125 5.5 13.125 7.5625 10.25 C10.5 8.125 10.5 8.125 14.0625 7.5625 C17.5 8.125 17.5 8.125 19.9375 9.625 C21.83241448 12.65686317 22.14036692 14.68580456 21.94921875 18.21875 C21.5 20.125 21.5 20.125 19.375 22.625 C16.04199763 24.36395776 14.20934317 24.59853317 10.5 24.125 C8.125 23.125 8.125 23.125 6.5 22.125 C5.84 22.785 5.18 23.445 4.5 24.125 C1.69924387 24.4840713 0.15874952 24.61916023 -2.13964844 22.89501953 C-3.88875224 20.61917556 -3.86075124 19.34023352 -3.828125 16.4921875 C-3.82296875 15.60402344 -3.8178125 14.71585938 -3.8125 13.80078125 C-3.791875 12.87652344 -3.77125 11.95226562 -3.75 11 C-3.74484375 10.06800781 -3.7396875 9.13601562 -3.734375 8.17578125 C-3.64128951 0.18206448 -3.64128951 0.18206448 0 0 Z " fill="#4B286E" transform="translate(35.5,89.875)"/>
<path d="M0 0 C0.33 0 0.66 0 1 0 C0.53199289 4.05606165 0.12046792 7.46588679 -2 11 C-2.66 11 -3.32 11 -4 11 C-4.226875 11.598125 -4.45375 12.19625 -4.6875 12.8125 C-6.98437239 16.64062066 -10.54982749 17.81045368 -14.5625 19.5 C-17.9207134 20.74998593 -17.9207134 20.74998593 -19.875 22.6875 C-23.28985389 24.79667446 -27.08255251 24.41319933 -31 24 C-32.64863668 22.35136332 -32.43756431 20.32490487 -32.6875 18.0625 C-32.79449219 17.16660156 -32.90148438 16.27070312 -33.01171875 15.34765625 C-33 13 -33 13 -31 11 C-28.87339754 11.01146416 -26.74681712 11.10695615 -24.625 11.25 C-20.14719147 11.53920724 -20.14719147 11.53920724 -16.32421875 9.671875 C-15.16049119 7.83146505 -15.16049119 7.83146505 -14 5 C-13.34 5 -12.68 5 -12 5 C-12 4.34 -12 3.68 -12 3 C-11.21753906 2.86722656 -10.43507813 2.73445313 -9.62890625 2.59765625 C-8.61699219 2.42105469 -7.60507813 2.24445312 -6.5625 2.0625 C-5.55316406 1.88847656 -4.54382813 1.71445312 -3.50390625 1.53515625 C-1.0712562 1.25248903 -1.0712562 1.25248903 0 0 Z " fill="#3B1962" transform="translate(96,57)"/>
<path d="M0 0 C2.45703125 0.421875 2.45703125 0.421875 5.64453125 2.671875 C7.45703125 5.421875 7.45703125 5.421875 7.26953125 7.734375 C7.00140625 8.29125 6.73328125 8.848125 6.45703125 9.421875 C4.47703125 9.421875 2.49703125 9.421875 0.45703125 9.421875 C1.42640625 9.958125 2.39578125 10.494375 3.39453125 11.046875 C6.45703125 13.421875 6.45703125 13.421875 7.64453125 16.359375 C7.45703125 19.421875 7.45703125 19.421875 5.45703125 22.296875 C1.71373098 24.94837936 -0.03681222 25.05431802 -4.54296875 24.421875 C-7.98046875 22.921875 -7.98046875 22.921875 -10.54296875 21.421875 C-10.21296875 19.441875 -9.88296875 17.461875 -9.54296875 15.421875 C-7.60546875 15.796875 -7.60546875 15.796875 -5.54296875 16.421875 C-5.21296875 17.081875 -4.88296875 17.741875 -4.54296875 18.421875 C-3.55296875 18.421875 -2.56296875 18.421875 -1.54296875 18.421875 C-3.32467441 16.54639535 -5.12594634 14.96382118 -7.16796875 13.359375 C-9.54296875 11.421875 -9.54296875 11.421875 -10.54296875 9.421875 C-11.00025209 4.04879571 -11.00025209 4.04879571 -9.33203125 1.76171875 C-6.3753911 -0.45253359 -3.57858272 -0.10479012 0 0 Z " fill="#61417F" transform="translate(22.54296875,89.578125)"/>
<path d="M0 0 C3 1 3 1 4 3 C4.1273092 6.37369377 4.11519183 9.43683992 3.4375 12.75 C2.77859647 15.15493756 2.77859647 15.15493756 4 18 C3.34 18 2.68 18 2 18 C2 18.66 2 19.32 2 20 C-11.12538541 18.40904419 -11.12538541 18.40904419 -15 14 C-16.09658936 10.71023192 -15.79953138 9.28696233 -15 6 C-13 9.75 -13 9.75 -13 12 C-12.34 12 -11.68 12 -11 12 C-11 9.36 -11 6.72 -11 4 C-10.34 3.67 -9.68 3.34 -9 3 C-9 3.66 -9 4.32 -9 5 C-8.01 5 -7.02 5 -6 5 C-5.67 4.34 -5.34 3.68 -5 3 C-5 3.99 -5 4.98 -5 6 C-3.35 5.34 -1.7 4.68 0 4 C0 2.68 0 1.36 0 0 Z " fill="#49216F" transform="translate(96,96)"/>
<path d="M0 0 C2.375 -0.125 2.375 -0.125 5 0 C7 2 7 2 7.0625 5.375 C6 9 6 9 3.25 11.4375 C-5.62021402 15.58531263 -15.92097984 12.89160125 -24.91162109 10.42382812 C-30.38208263 8.95598406 -35.95179426 7.9057723 -41.4375 9.875 C-43.15893274 10.93074101 -43.15893274 10.93074101 -44 13 C-44.06996014 14.70702735 -44.08440154 16.41668003 -44.0625 18.125 C-44.04896484 19.49011719 -44.04896484 19.49011719 -44.03515625 20.8828125 C-44.02355469 21.58148438 -44.01195312 22.28015625 -44 23 C-41.69 23.33 -39.38 23.66 -37 24 C-37 24.66 -37 25.32 -37 26 C-41.44870215 26.39253254 -44.14243493 25.15305957 -48 23 C-48.86097841 13.31877615 -48.86097841 13.31877615 -45.625 9.4375 C-41.35994811 5.47709468 -38.43347815 5.67867239 -32.76953125 5.69921875 C-27.51249442 6.11869215 -22.51328516 7.2847761 -17.40820312 8.5769043 C-9.88805523 10.4428119 -3.88748112 10.85698943 3 7 C4.04289755 4.93109581 4.04289755 4.93109581 4 3 C3.34 3.33 2.68 3.66 2 4 C2 4.66 2 5.32 2 6 C1.34 6 0.68 6 0 6 C0 5.34 0 4.68 0 4 C-0.66 4 -1.32 4 -2 4 C-1.34 2.68 -0.68 1.36 0 0 Z " fill="#42295C" transform="translate(81,17)"/>
<path d="M0 0 C1.875 0.8125 1.875 0.8125 2.875 2.8125 C2.9466735 5.36407655 2.96808442 7.88722971 2.9375 10.4375 C2.93298828 11.14390625 2.92847656 11.8503125 2.92382812 12.578125 C2.91203875 14.32295275 2.89410324 16.067737 2.875 17.8125 C2.215 17.8125 1.555 17.8125 0.875 17.8125 C0.875 18.4725 0.875 19.1325 0.875 19.8125 C3.845 19.4825 6.815 19.1525 9.875 18.8125 C10.205 20.4625 10.535 22.1125 10.875 23.8125 C8.29491408 25.10254296 6.31758426 25.01660224 3.4375 25.0625 C1.98537109 25.10117188 1.98537109 25.10117188 0.50390625 25.140625 C-2.125 24.8125 -2.125 24.8125 -3.7644043 23.56347656 C-5.46107113 21.38000366 -5.5112467 20.21109894 -5.5234375 17.46875 C-5.52730469 16.63472656 -5.53117187 15.80070312 -5.53515625 14.94140625 C-5.51775391 13.64009766 -5.51775391 13.64009766 -5.5 12.3125 C-5.51160156 11.44496094 -5.52320312 10.57742187 -5.53515625 9.68359375 C-5.52935547 8.43255859 -5.52935547 8.43255859 -5.5234375 7.15625 C-5.52005371 6.39505859 -5.51666992 5.63386719 -5.51318359 4.84960938 C-4.89314355 1.595764 -3.40612451 -0.3005404 0 0 Z " fill="#6B4F85" transform="translate(106.125,89.1875)"/>
<path d="M0 0 C0.99 0 1.98 0 3 0 C2.9375 2.3125 2.9375 2.3125 2 5 C-4.22800182 9.24636488 -10.8307478 8.11247017 -18 7 C-20.02842924 6.5095823 -22.04995584 5.98949702 -24.0625 5.4375 C-30.05750335 3.83141157 -35.81827585 3.12893887 -42 4 C-45.07365786 5.80803404 -46.43019732 6.86039464 -48 10 C-48.22622081 11.70363822 -48.40888473 13.41328701 -48.5625 15.125 C-48.64628906 16.03507812 -48.73007812 16.94515625 -48.81640625 17.8828125 C-48.87699219 18.58148438 -48.93757813 19.28015625 -49 20 C-51 18 -51 18 -51.375 14.25 C-51.24708056 9.8447744 -49.95333587 7.34193269 -47 4 C-41.77356148 0.1757767 -36.21646098 0.26363617 -30 1 C-26.40141179 1.92569474 -22.87408253 3.00028696 -19.328125 4.109375 C-15.01862224 5.26262222 -11.42844383 5.30540992 -7 5 C-6.67 4.01 -6.34 3.02 -6 2 C-4.35 1.67 -2.7 1.34 -1 1 C-1 1.66 -1 2.32 -1 3 C-0.34 3 0.32 3 1 3 C0.505 1.515 0.505 1.515 0 0 Z " fill="#D3CDD9" transform="translate(82,20)"/>
<path d="M0 0 C6.0546875 -0.1953125 6.0546875 -0.1953125 8 0 C10 2 10 2 10.375 5.0625 C9.9081285 9.96465078 8.20948112 13.65008404 6 18 C3.36 18 0.72 18 -2 18 C-1.67257813 17.48953125 -1.34515625 16.9790625 -1.0078125 16.453125 C0.35648384 13.13227963 0.1912273 10.32627432 0.125 6.75 C0.10695313 5.48671875 0.08890625 4.2234375 0.0703125 2.921875 C0.04710938 1.95765625 0.02390625 0.9934375 0 0 Z " fill="#411E7B" transform="translate(71,35)"/>
<path d="M0 0 C0.66 0.33 1.32 0.66 2 1 C1.82790742 5.38836089 1.52160085 7.44292707 -1.52734375 10.69921875 C-5.31840317 13.65139344 -8.76144017 13.76955146 -13.4375 13.625 C-14.19305176 13.61460693 -14.94860352 13.60421387 -15.72705078 13.59350586 C-21.59026369 13.35956379 -24.73494783 12.16350331 -29 8 C-29.99 7.67 -30.98 7.34 -32 7 C-32.33 5.02 -32.66 3.04 -33 1 C-31.5459375 2.2065625 -31.5459375 2.2065625 -30.0625 3.4375 C-25.89965554 6.45726832 -22.04470785 6.87416828 -17 7 C-17 6.34 -17 5.68 -17 5 C-16.01 5.33 -15.02 5.66 -14 6 C-14 6.66 -14 7.32 -14 8 C-14.99 8.33 -15.98 8.66 -17 9 C-10.37864751 9.36964608 -10.37864751 9.36964608 -4 7.875 C-1.45792221 5.49180208 -0.81778343 3.34547769 0 0 Z " fill="#431E7D" transform="translate(69,41)"/>
<path d="M0 0 C0 1.66666667 0 3.33333333 0 5 C0.66 5.33 1.32 5.66 2 6 C2 6.99 2 7.98 2 9 C-1.16942884 11.11295256 -1.99629953 11.25250929 -5.625 11.1875 C-6.42164062 11.18105469 -7.21828125 11.17460938 -8.0390625 11.16796875 C-10 11 -10 11 -11 10 C-11.23287008 8.31816052 -11.41264166 6.6287584 -11.5625 4.9375 C-11.64628906 4.01839844 -11.73007812 3.09929687 -11.81640625 2.15234375 C-11.90728516 1.08693359 -11.90728516 1.08693359 -12 0 C-11.01 0 -10.02 0 -9 0 C-5.93109813 -1.53445094 -3.29905734 -0.54984289 0 0 Z " fill="#3C1B5D" transform="translate(75,70)"/>
<path d="M0 0 C0 1.32 0 2.64 0 4 C0.66 4 1.32 4 2 4 C2.66 2.68 3.32 1.36 4 0 C5.9375 0.375 5.9375 0.375 8 1 C8.33 1.66 8.66 2.32 9 3 C10.32 1.68 11.64 0.36 13 -1 C13.33 -0.67 13.66 -0.34 14 0 C13.71269945 2.33944736 13.38063221 4.6739143 13 7 C12.34 7 11.68 7 11 7 C10.67 7.66 10.34 8.32 10 9 C9.67 8.67 9.34 8.34 9 8 C9 8.66 9 9.32 9 10 C8.34 10 7.68 10 7 10 C6.67 8.02 6.34 6.04 6 4 C5.34 4 4.68 4 4 4 C4 5.32 4 6.64 4 8 C1.69 7.67 -0.62 7.34 -3 7 C-3.33 7.99 -3.66 8.98 -4 10 C-4.66 6.7 -5.32 3.4 -6 0 C-3 -1 -3 -1 0 0 Z " fill="#724E8C" transform="translate(63,99)"/>
<path d="M0 0 C0.99 0.33 1.98 0.66 3 1 C3 2.65 3 4.3 3 6 C3.309375 5.38125 3.61875 4.7625 3.9375 4.125 C4.625 2.75 5.3125 1.375 6 0 C6.99 0.33 7.98 0.66 9 1 C8.34 1 7.68 1 7 1 C6.67 3.31 6.34 5.62 6 8 C6.66 8 7.32 8 8 8 C8 8.66 8 9.32 8 10 C10.51083114 8.74458443 10.87125446 7.49936512 12 5 C12.66 5 13.32 5 14 5 C13.65172319 7.57724836 13.3313119 9.52032284 11.83984375 11.6796875 C9.12160238 13.63035753 7.14757138 13.14764285 3.875 12.8125 C2.79992187 12.71582031 1.72484375 12.61914062 0.6171875 12.51953125 C-0.24648437 12.34808594 -1.11015625 12.17664063 -2 12 C-2.33 11.34 -2.66 10.68 -3 10 C-2.01 10 -1.02 10 0 10 C0 9.34 0 8.68 0 8 C-1.65 7.67 -3.3 7.34 -5 7 C-3.35 4.69 -1.7 2.38 0 0 Z " fill="#E8E5EB" transform="translate(68,56)"/>
<path d="M0 0 C0.66 0 1.32 0 2 0 C2.33 1.98 2.66 3.96 3 6 C3.66 6 4.32 6 5 6 C4.67 4.68 4.34 3.36 4 2 C5.65 2.33 7.3 2.66 9 3 C9.33 2.34 9.66 1.68 10 1 C9.25 8.75 9.25 8.75 7 11 C4.06546739 10.63318342 3.13562754 10.13562754 1 8 C0.01 9.485 0.01 9.485 -1 11 C-3.86724686 10.42655063 -4.8614515 10.1385485 -7 8 C-7.125 5.375 -7.125 5.375 -7 3 C-4.69 3.33 -2.38 3.66 0 4 C0 2.68 0 1.36 0 0 Z " fill="#502C73" transform="translate(67,103)"/>
<path d="M0 0 C0.86625 -0.00773437 1.7325 -0.01546875 2.625 -0.0234375 C5.39380767 0.44106642 6.26929299 1.22300246 8 3.375 C7.01 3.705 6.02 4.035 5 4.375 C4.67 5.035 4.34 5.695 4 6.375 C1.69 6.045 -0.62 5.715 -3 5.375 C-3.33 7.355 -3.66 9.335 -4 11.375 C-3.34 11.375 -2.68 11.375 -2 11.375 C-2.33 12.365 -2.66 13.355 -3 14.375 C-7.86111111 10.24305556 -7.86111111 10.24305556 -8.5 6.25 C-7.58920535 1.01293077 -5.08039883 -0.0453607 0 0 Z " fill="#6B4C84" transform="translate(20,89.625)"/>
<path d="M0 0 C13.2 0 26.4 0 40 0 C40 0.33 40 0.66 40 1 C30.76 1.33 21.52 1.66 12 2 C10.5216774 4.95664519 10.93967217 7.74229737 11 11 C10.34 11 9.68 11 9 11 C9 9.35 9 7.7 9 6 C6.03 6.66 3.06 7.32 0 8 C0 5.36 0 2.72 0 0 Z " fill="#786092" transform="translate(37,32)"/>
<path d="M0 0 C2.1875 0.3125 2.1875 0.3125 4 1 C2.68 1.33 1.36 1.66 0 2 C0 2.66 0 3.32 0 4 C4.14093698 4.20970559 4.14093698 4.20970559 8 3 C8 3.66 8 4.32 8 5 C8.66 5 9.32 5 10 5 C10 4.34 10 3.68 10 3 C10.66 3.33 11.32 3.66 12 4 C11.67 5.65 11.34 7.3 11 9 C6.94568308 10.15837626 4.78187881 9.83691257 1 8 C0.67 10.64 0.34 13.28 0 16 C-0.66 16 -1.32 16 -2 16 C-2.33 15.34 -2.66 14.68 -3 14 C-3.99 14.495 -3.99 14.495 -5 15 C-5 13.02 -5 11.04 -5 9 C-4.01 9 -3.02 9 -2 9 C-2 8.34 -2 7.68 -2 7 C-1.34 6.67 -0.68 6.34 0 6 C-0.99 5.01 -1.98 4.02 -3 3 C-1.75 1.4375 -1.75 1.4375 0 0 Z " fill="#4A2570" transform="translate(85,92)"/>
<path d="M0 0 C1.65 0 3.3 0 5 0 C5.38218767 1.65614657 5.71395102 3.32457024 6 5 C5 6 5 6 1.9375 6.0625 C0.968125 6.041875 -0.00125 6.02125 -1 6 C0.32 6.99 1.64 7.98 3 9 C1.35 9 -0.3 9 -2 9 C-2.66 10.32 -3.32 11.64 -4 13 C-4.99 12.01 -5.98 11.02 -7 10 C-6.67 9.34 -6.34 8.68 -6 8 C-6.66 8 -7.32 8 -8 8 C-8.33 6.68 -8.66 5.36 -9 4 C-8.34 4 -7.68 4 -7 4 C-7 3.34 -7 2.68 -7 2 C-4.69 2 -2.38 2 0 2 C0 1.34 0 0.68 0 0 Z " fill="#654E7D" transform="translate(24,93)"/>
<path d="M0 0 C1.66611905 -0.042721 3.33382885 -0.04063832 5 0 C6 1 6 1 6.09765625 4.59765625 C6.0909822 6.08596867 6.07902183 7.57426432 6.0625 9.0625 C6.05798828 9.82111328 6.05347656 10.57972656 6.04882812 11.36132812 C6.0370068 13.24091871 6.01907078 15.12046899 6 17 C5.34 17 4.68 17 4 17 C4 16.34 4 15.68 4 15 C3.34 15 2.68 15 2 15 C1.46467177 13.44240657 0.94734622 11.87861955 0.4375 10.3125 C0.14746094 9.44238281 -0.14257812 8.57226562 -0.44140625 7.67578125 C-1.05141961 4.75368926 -0.77703633 2.85599447 0 0 Z " fill="#624C78" transform="translate(33,90)"/>
<path d="M0 0 C6.46341463 2.58536585 6.46341463 2.58536585 9 6 C8.92509796 9.07098379 8.44344796 10.48560036 6.4375 12.8125 C5.963125 13.204375 5.48875 13.59625 5 14 C2.525 13.01 2.525 13.01 0 12 C0 8.04 0 4.08 0 0 Z " fill="#6B3EA8" transform="translate(82,37)"/>
<path d="M0 0 C0 1.65 0 3.3 0 5 C0.99 4.67 1.98 4.34 3 4 C3 4.66 3 5.32 3 6 C3.99 6.33 4.98 6.66 6 7 C6 7.99 6 8.98 6 10 C-2.12628256 10.46882399 -2.12628256 10.46882399 -5.5625 8.625 C-7 7 -7 7 -7 5 C-5.35 5 -3.7 5 -2 5 C-2 4.34 -2 3.68 -2 3 C-3.65 3 -5.3 3 -7 3 C-7.33 2.34 -7.66 1.68 -8 1 C-5.10765685 0.17361624 -3.11257569 0 0 0 Z " fill="#683EA7" transform="translate(46,38)"/>
<path d="M0 0 C0.33 0 0.66 0 1 0 C1.66 3.3 2.32 6.6 3 10 C3.66 10 4.32 10 5 10 C5.33 11.32 5.66 12.64 6 14 C6.99 14 7.98 14 9 14 C9.33 14.99 9.66 15.98 10 17 C8 19 8 19 5.5625 19.3125 C3 19 3 19 1.3515625 17.9921875 C-0.78682088 14.84023512 -0.31236384 11.47837433 -0.1875 7.8125 C-0.17396484 7.06291016 -0.16042969 6.31332031 -0.14648438 5.54101562 C-0.11118539 3.69370233 -0.05737917 1.84675934 0 0 Z " fill="#634080" transform="translate(32,95)"/>
<path d="M0 0 C11.88 0 23.76 0 36 0 C36 0.33 36 0.66 36 1 C34.02 1 32.04 1 30 1 C29.67 1.66 29.34 2.32 29 3 C28.67 2.67 28.34 2.34 28 2 C25.81360547 1.92741054 23.62499611 1.91626217 21.4375 1.9375 C20.23996094 1.94652344 19.04242188 1.95554688 17.80859375 1.96484375 C16.41833984 1.98224609 16.41833984 1.98224609 15 2 C15.99 2.66 16.98 3.32 18 4 C18.1875 6.625 18.1875 6.625 18 9 C17.01 9.495 17.01 9.495 16 10 C15.34 8.02 14.68 6.04 14 4 C12.35 4 10.7 4 9 4 C8.67 5.65 8.34 7.3 8 9 C7.67 9 7.34 9 7 9 C6.95745644 7.00045254 6.95919217 4.99958364 7 3 C7.33 2.67 7.66 2.34 8 2 C5.36 1.67 2.72 1.34 0 1 C0 0.67 0 0.34 0 0 Z " fill="#321254" transform="translate(40,33)"/>
<path d="M0 0 C2.26921536 -0.13489391 4.5407067 -0.23193995 6.8125 -0.3125 C8.70935547 -0.39951172 8.70935547 -0.39951172 10.64453125 -0.48828125 C14 0 14 0 16.01171875 2.33203125 C17 5 17 5 16 8 C15.34 7.01 14.68 6.02 14 5 C13.67 5.33 13.34 5.66 13 6 C10.66702567 6.04092937 8.33294775 6.04241723 6 6 C6 5.34 6 4.68 6 4 C5.195625 3.71125 4.39125 3.4225 3.5625 3.125 C1 2 1 2 0 0 Z " fill="#A07ECB" transform="translate(54,34)"/>
<path d="M0 0 C2.375 -0.125 2.375 -0.125 5 0 C7 2 7 2 7.0625 5.375 C5.95124607 9.16633695 5.77234143 9.59695634 2.625 11.5 C-1 13 -1 13 -4 12 C-4 11.34 -4 10.68 -4 10 C-2.2984375 9.38125 -2.2984375 9.38125 -0.5625 8.75 C3.09543384 7.43314602 3.09543384 7.43314602 3.9375 4.8125 C3.958125 4.214375 3.97875 3.61625 4 3 C3.01 3.495 3.01 3.495 2 4 C2 4.66 2 5.32 2 6 C1.34 6 0.68 6 0 6 C0 5.34 0 4.68 0 4 C-0.66 4 -1.32 4 -2 4 C-1.34 2.68 -0.68 1.36 0 0 Z " fill="#58436F" transform="translate(81,17)"/>
<path d="M0 0 C-0.66 2.97 -1.32 5.94 -2 9 C-5.50935186 9 -8.56484998 8.62457273 -12 8 C-12 7.34 -12 6.68 -12 6 C-9.5 4.375 -9.5 4.375 -7 3 C-7.33 2.34 -7.66 1.68 -8 1 C-5.07175348 0.02391783 -3.04386724 -0.08226668 0 0 Z " fill="#695A78" transform="translate(97,88)"/>
<path d="M0 0 C5.28 0 10.56 0 16 0 C15.34 1.98 14.68 3.96 14 6 C15.65 5.67 17.3 5.34 19 5 C19 5.66 19 6.32 19 7 C14.375 9.125 14.375 9.125 11 8 C10.67 7.01 10.34 6.02 10 5 C9.01 4.67 8.02 4.34 7 4 C7.99 3.67 8.98 3.34 10 3 C5.22237362 1.98312954 5.22237362 1.98312954 0.5625 2.9375 C0.046875 3.288125 -0.46875 3.63875 -1 4 C-0.67 2.68 -0.34 1.36 0 0 Z " fill="#351458" transform="translate(65,68)"/>
<path d="M0 0 C1.4540625 1.2065625 1.4540625 1.2065625 2.9375 2.4375 C7.10034446 5.45726832 10.95529215 5.87416828 16 6 C16 5.34 16 4.68 16 4 C16.99 4.33 17.98 4.66 19 5 C19 5.66 19 6.32 19 7 C15.55270788 9.10200739 13.51984044 10.01824002 9.4375 9.875 C5.97323983 8.99318832 3.72065061 8.32055493 1 6 C0.1875 2.8125 0.1875 2.8125 0 0 Z " fill="#33105B" transform="translate(36,42)"/>
<path d="M0 0 C0.99 0 1.98 0 3 0 C2.9375 2.3125 2.9375 2.3125 2 5 C-2.74120501 7.74989891 -6.45162747 8.54395809 -12 8 C-12.66 7.34 -13.32 6.68 -14 6 C-10.535 5.505 -10.535 5.505 -7 5 C-6.67 4.01 -6.34 3.02 -6 2 C-4.35 1.67 -2.7 1.34 -1 1 C-1 1.66 -1 2.32 -1 3 C-0.34 3 0.32 3 1 3 C0.67 2.01 0.34 1.02 0 0 Z " fill="#E7E4E9" transform="translate(82,20)"/>
<path d="M0 0 C0.99 0.33 1.98 0.66 3 1 C1.79618552 3.49361571 0.54571278 5.68143083 -1 8 C0.32 8.33 1.64 8.66 3 9 C3 9.66 3 10.32 3 11 C1.576875 10.9690625 1.576875 10.9690625 0.125 10.9375 C-2.90666283 10.77448174 -2.90666283 10.77448174 -5 12 C-5.99 10.02 -6.98 8.04 -8 6 C-6.7391988 4.96680187 -5.46596742 3.94875621 -4.1875 2.9375 C-3.47980469 2.36902344 -2.77210937 1.80054688 -2.04296875 1.21484375 C-1.36878906 0.81394531 -0.69460937 0.41304687 0 0 Z " fill="#68547D" transform="translate(65,55)"/>
<path d="M0 0 C2.25740223 2.44551908 2.97222725 3.76856041 3.375 7.125 C3.25125 8.07375 3.1275 9.0225 3 10 C0 12 0 12 -4 12 C-4.8125 9.9375 -4.8125 9.9375 -5 7 C-3.58973707 4.45310725 -1.86023965 2.23357494 0 0 Z " fill="#8B4BAC" transform="translate(92,46)"/>
<path d="M0 0 C4.70588235 0.70588235 4.70588235 0.70588235 6 2 C6.29386153 5.72224599 6.14809171 6.77786243 4 10 C1.8359375 10.51171875 1.8359375 10.51171875 -0.625 10.6875 C-1.44226563 10.75324219 -2.25953125 10.81898437 -3.1015625 10.88671875 C-3.72804688 10.92410156 -4.35453125 10.96148437 -5 11 C-3.68 10.34 -2.36 9.68 -1 9 C-2.65 8.67 -4.3 8.34 -6 8 C-6 7.67 -6 7.34 -6 7 C-1.545 6.505 -1.545 6.505 3 6 C3.33 5.01 3.66 4.02 4 3 C3.01 3.495 3.01 3.495 2 4 C2 4.66 2 5.32 2 6 C1.34 6 0.68 6 0 6 C-0.38218767 4.34385343 -0.71395102 2.67542976 -1 1 C-0.67 0.67 -0.34 0.34 0 0 Z " fill="#4B3563" transform="translate(71,15)"/>
<path d="M0 0 C0.66 0.33 1.32 0.66 2 1 C2.40729228 3.32156597 2.74438677 5.6568787 3 8 C2.34 8 1.68 8 1 8 C1 8.66 1 9.32 1 10 C-4.94 9.01 -4.94 9.01 -11 8 C-11.33 7.01 -11.66 6.02 -12 5 C-10.35 5 -8.7 5 -7 5 C-7 5.66 -7 6.32 -7 7 C-5.68 7 -4.36 7 -3 7 C-2.87625 6.030625 -2.7525 5.06125 -2.625 4.0625 C-2.41875 3.051875 -2.2125 2.04125 -2 1 C-1.34 0.67 -0.68 0.34 0 0 Z " fill="#785097" transform="translate(97,106)"/>
<path d="M0 0 C2.475 0.99 2.475 0.99 5 2 C5 3.65 5 5.3 5 7 C4.67 6.34 4.34 5.68 4 5 C3.34 5 2.68 5 2 5 C1.84850702 8.62885324 1.84850702 8.62885324 3 12 C3.04022391 14.3329866 3.04320247 16.66706666 3 19 C2.01 19 1.02 19 0 19 C-0.1938211 16.02111874 -0.38035102 13.04209754 -0.5625 10.0625 C-0.61857422 9.21236328 -0.67464844 8.36222656 -0.73242188 7.48632812 C-0.80493164 6.27299805 -0.80493164 6.27299805 -0.87890625 5.03515625 C-0.9260376 4.2862915 -0.97316895 3.53742676 -1.02172852 2.76586914 C-1 1 -1 1 0 0 Z " fill="#583D75" transform="translate(102,91)"/>
<path d="M0 0 C0.56847656 0.51820312 1.13695313 1.03640625 1.72265625 1.5703125 C1.72265625 2.5603125 1.72265625 3.5503125 1.72265625 4.5703125 C-0.81905579 3.39721464 -3.00618119 2.0794628 -5.33984375 0.5078125 C-9.07698708 -1.95711183 -11.58830077 -2.55561566 -15.96484375 -2.4921875 C-16.77308594 -2.48316406 -17.58132812 -2.47414062 -18.4140625 -2.46484375 C-19.02894531 -2.45324219 -19.64382812 -2.44164062 -20.27734375 -2.4296875 C-20.27734375 -3.0896875 -20.27734375 -3.7496875 -20.27734375 -4.4296875 C-11.97841027 -6.2514046 -6.89317401 -4.5801056 0 0 Z " fill="#4B2F68" transform="translate(90.27734375,38.4296875)"/>
<path d="M0 0 C6.0546875 -0.1953125 6.0546875 -0.1953125 8 0 C10 2 10 2 10.125 5.625 C10.08375 6.73875 10.0425 7.8525 10 9 C9.34 8.67 8.68 8.34 8 8 C8 7.01 8 6.02 8 5 C6.02 5 4.04 5 2 5 C1.34 3.35 0.68 1.7 0 0 Z " fill="#9B4DAD" transform="translate(71,35)"/>
<path d="M0 0 C0.33 0.66 0.66 1.32 1 2 C1.99 2 2.98 2 4 2 C4.33 1.34 4.66 0.68 5 0 C5 0.99 5 1.98 5 3 C5.99 2.67 6.98 2.34 8 2 C8 3.32 8 4.64 8 6 C7.360625 6.12375 6.72125 6.2475 6.0625 6.375 C5.0415625 6.684375 5.0415625 6.684375 4 7 C3.67 7.66 3.34 8.32 3 9 C1.68 8.34 0.36 7.68 -1 7 C-1.04254356 5.00045254 -1.04080783 2.99958364 -1 1 C-0.67 0.67 -0.34 0.34 0 0 Z " fill="#E7E4EB" transform="translate(86,99)"/>
<path d="M0 0 C-0.33 0.99 -0.66 1.98 -1 3 C-1 2.34 -1 1.68 -1 1 C-1.45375 1.495 -1.9075 1.99 -2.375 2.5 C-4 4 -4 4 -6 4 C-6 5.65 -6 7.3 -6 9 C-7.65 9 -9.3 9 -11 9 C-10.51780822 3.57534247 -10.51780822 3.57534247 -8.3125 1.125 C-5.40422845 -0.28983481 -3.19384754 -0.21776233 0 0 Z " fill="#6B468A" transform="translate(52,98)"/>
<path d="M0 0 C1.98 0 3.96 0 6 0 C6.33 2.31 6.66 4.62 7 7 C4.69 7 2.38 7 0 7 C0 4.69 0 2.38 0 0 Z " fill="#6B3EAC" transform="translate(73,40)"/>
<path d="M0 0 C1.32 0.33 2.64 0.66 4 1 C3.67 1.99 3.34 2.98 3 4 C5.31 4.66 7.62 5.32 10 6 C7 7 7 7 5 7 C4.34 8.32 3.68 9.64 3 11 C2.01 10.01 1.02 9.02 0 8 C0.33 7.34 0.66 6.68 1 6 C0.34 6 -0.32 6 -1 6 C-1.33 4.68 -1.66 3.36 -2 2 C-1.34 2 -0.68 2 0 2 C0 1.34 0 0.68 0 0 Z " fill="#5D3C7E" transform="translate(17,95)"/>
<path d="M0 0 C2.56687367 3.8503105 1.83288724 5.58569763 1 10 C0.67 9.34 0.34 8.68 0 8 C-0.70125 8.33 -1.4025 8.66 -2.125 9 C-5.26003116 10.09044562 -7.70563182 10.15322643 -11 10 C-11 10.66 -11 11.32 -11 12 C-11.66 12 -12.32 12 -13 12 C-13.33 10.35 -13.66 8.7 -14 7 C-12.86111328 7.01740234 -12.86111328 7.01740234 -11.69921875 7.03515625 C-10.70535156 7.04417969 -9.71148437 7.05320312 -8.6875 7.0625 C-7.70136719 7.07410156 -6.71523437 7.08570313 -5.69921875 7.09765625 C-2.90036151 7.12329862 -2.90036151 7.12329862 0 6 C0 4.02 0 2.04 0 0 Z " fill="#331357" transform="translate(95,50)"/>
<path d="M0 0 C2.1875 0.3125 2.1875 0.3125 4 1 C2.68 1.33 1.36 1.66 0 2 C0 2.66 0 3.32 0 4 C4.14093698 4.20970559 4.14093698 4.20970559 8 3 C8 3.66 8 4.32 8 5 C8.66 5 9.32 5 10 5 C10 4.34 10 3.68 10 3 C10.66 3.33 11.32 3.66 12 4 C11.67 5.65 11.34 7.3 11 9 C10.01 9 9.02 9 8 9 C7.67 8.34 7.34 7.68 7 7 C5.17696338 6.38833807 5.17696338 6.38833807 3.0625 6 C0.09189285 5.39617423 -0.78691174 5.21308826 -3 3 C-1.75 1.4375 -1.75 1.4375 0 0 Z " fill="#45226A" transform="translate(85,92)"/>
<path d="M0 0 C0 0.66 0 1.32 0 2 C-0.598125 2.226875 -1.19625 2.45375 -1.8125 2.6875 C-4.56351888 4.33811133 -5.52484637 6.1972081 -7 9 C-7.99 8.67 -8.98 8.34 -10 8 C-10.25 5.1875 -10.25 5.1875 -10 2 C-6.92702006 -1.66393762 -4.38919352 -1.09729838 0 0 Z " fill="#67527C" transform="translate(60,56)"/>
<path d="M0 0 C-0.62759865 2.92879371 -1.58622659 5.36095629 -3 8 C-4.65 8 -6.3 8 -8 8 C-7.8125 5.125 -7.8125 5.125 -7 2 C-4.52409924 0.60333803 -2.83735815 0 0 0 Z " fill="#8546A7" transform="translate(95,58)"/>
<path d="M0 0 C2.31 0.33 4.62 0.66 7 1 C6.175 1.763125 5.35 2.52625 4.5 3.3125 C1.65944803 5.75434142 1.65944803 5.75434142 2 9 C2.33 9.99 2.66 10.98 3 12 C1.0625 11.3125 1.0625 11.3125 -1 10 C-1.75 7.375 -1.75 7.375 -2 5 C-0.35 4.34 1.3 3.68 3 3 C2.01 2.67 1.02 2.34 0 2 C0 1.34 0 0.68 0 0 Z " fill="#462D60" transform="translate(57,55)"/>
<path d="M0 0 C2 3.75 2 3.75 2 6 C2.66 6 3.32 6 4 6 C4.33 5.34 4.66 4.68 5 4 C6.32 5.32 7.64 6.64 9 8 C7.68 8.99 6.36 9.98 5 11 C2.58896173 10.03558469 1.22595242 9.31202953 -0.3125 7.1875 C-1.17031512 4.45808824 -0.75644808 2.72321308 0 0 Z " fill="#664087" transform="translate(81,102)"/>
<path d="M0 0 C0 1.98 0 3.96 0 6 C0.66 6.33 1.32 6.66 2 7 C0.35 7 -1.3 7 -3 7 C-3.33 7.99 -3.66 8.98 -4 10 C-4.66 6.7 -5.32 3.4 -6 0 C-3 -1 -3 -1 0 0 Z " fill="#684781" transform="translate(63,99)"/>
<path d="M0 0 C0.8971875 0.309375 0.8971875 0.309375 1.8125 0.625 C0.389375 1.5221875 0.389375 1.5221875 -1.0625 2.4375 C-4.32714197 4.44062526 -4.32714197 4.44062526 -6.1875 7.625 C-6.64351261 10.13396686 -6.64351261 10.13396686 -6.8125 12.8125 C-6.88726562 13.71355469 -6.96203125 14.61460938 -7.0390625 15.54296875 C-7.08804688 16.23003906 -7.13703125 16.91710937 -7.1875 17.625 C-9.1875 15.625 -9.1875 15.625 -9.5625 11.875 C-9.45928581 7.50824576 -7.99944976 4.99933972 -5.1875 1.625 C-2.1875 -0.375 -2.1875 -0.375 0 0 Z " fill="#EAE7EC" transform="translate(40.1875,22.375)"/>
<path d="M0 0 C-0.99 1.485 -0.99 1.485 -2 3 C-0.35 2.34 1.3 1.68 3 1 C3.33 1.99 3.66 2.98 4 4 C3.01 4.66 2.02 5.32 1 6 C1 5.34 1 4.68 1 4 C0.01 4.495 0.01 4.495 -1 5 C-3.3329866 5.04022391 -5.66706666 5.04320247 -8 5 C-7.625 3.0625 -7.625 3.0625 -7 1 C-4.53721199 -0.231394 -2.7204945 -0.07159196 0 0 Z " fill="#6E3A91" transform="translate(74,74)"/>
<path d="M0 0 C1.2065625 0.0309375 1.2065625 0.0309375 2.4375 0.0625 C1.34287324 3.2369176 0.45572665 4.05164157 -2.5 5.8125 C-5.5625 7.0625 -5.5625 7.0625 -8.5625 7.0625 C-8.5625 6.0725 -8.5625 5.0825 -8.5625 4.0625 C-6.125 2.4375 -6.125 2.4375 -3.5625 1.0625 C-2.5625 0.0625 -2.5625 0.0625 0 0 Z " fill="#70389F" transform="translate(87.5625,66.9375)"/>
<path d="M0 0 C0.33 0.66 0.66 1.32 1 2 C-2.63 2.33 -6.26 2.66 -10 3 C-10.33 3.99 -10.66 4.98 -11 6 C-11.33 4.02 -11.66 2.04 -12 0 C-11.01 0 -10.02 0 -9 0 C-5.88173308 -1.55913346 -3.32926126 -0.66585225 0 0 Z " fill="#8968B4" transform="translate(75,70)"/>
<path d="M0 0 C0 0.66 0 1.32 0 2 C1.32 2.33 2.64 2.66 4 3 C-6.55808656 4.33257403 -6.55808656 4.33257403 -11 3 C-11.33 3.66 -11.66 4.32 -12 5 C-13.32 4.34 -14.64 3.68 -16 3 C-16 2.34 -16 1.68 -16 1 C-14.73542969 1.01740234 -14.73542969 1.01740234 -13.4453125 1.03515625 C-12.34960938 1.04417969 -11.25390625 1.05320313 -10.125 1.0625 C-8.48917969 1.07990234 -8.48917969 1.07990234 -6.8203125 1.09765625 C-4.16663968 1.00577007 -2.56044142 0 0 0 Z " fill="#2F0E52" transform="translate(68,52)"/>
<path d="M0 0 C0 0.33 0 0.66 0 1 C-2.64 1 -5.28 1 -8 1 C-8 1.66 -8 2.32 -8 3 C-10.75 4.625 -10.75 4.625 -14 6 C-16.203125 5.0859375 -16.203125 5.0859375 -18 4 C-11.72912263 0.28392452 -7.24539726 -0.53449652 0 0 Z " fill="#655079" transform="translate(51,18)"/>
<path d="M0 0 C0.66 0.33 1.32 0.66 2 1 C2.33 1 2.66 1 3 1 C4.32 1 5.64 1 7 1 C6 3 5 5 4 7 C2.125 6.6875 2.125 6.6875 0 6 C-0.66 5.01 -1.32 4.02 -2 3 C-1.34 3 -0.68 3 0 3 C0 2.01 0 1.02 0 0 Z " fill="#674788" transform="translate(62,107)"/>
<path d="M0 0 C0.33 0.66 0.66 1.32 1 2 C2.64363134 2.72159424 4.31050386 3.39351421 6 4 C3.75 6.0625 3.75 6.0625 1 8 C-1.3125 7.75 -1.3125 7.75 -3 7 C-2.01 4.69 -1.02 2.38 0 0 Z " fill="#421D7A" transform="translate(81,47)"/>
<path d="M0 0 C0.66 0.33 1.32 0.66 2 1 C1.6189482 3.76262553 1.16402868 4.84143894 -0.875 6.8125 C-1.57625 7.204375 -2.2775 7.59625 -3 8 C-3.99 7.67 -4.98 7.34 -6 7 C-5 4 -5 4 -2 2 C-1.34 1.34 -0.68 0.68 0 0 Z " fill="#664185" transform="translate(55,106)"/>
<path d="M0 0 C0.33 0 0.66 0 1 0 C3.48063781 10.37357631 3.48063781 10.37357631 2 16 C1.34 16 0.68 16 0 16 C0 10.72 0 5.44 0 0 Z " fill="#4D2D6E" transform="translate(32,95)"/>
<path d="M0 0 C1.32 0 2.64 0 4 0 C4.33 1.32 4.66 2.64 5 4 C5.66 4 6.32 4 7 4 C7 4.99 7 5.98 7 7 C2.25 5.125 2.25 5.125 0 4 C0 2.68 0 1.36 0 0 Z " fill="#83619E" transform="translate(41,107)"/>
<path d="M0 0 C-3.09361358 2.06240906 -4.46698546 2.38991902 -8.0625 2.75 C-8.94035156 2.84796875 -9.81820312 2.9459375 -10.72265625 3.046875 C-13 3 -13 3 -15 1 C-10.05183286 -1.80396138 -5.38317715 -0.77350507 0 0 Z " fill="#472675" transform="translate(60,51)"/>
<path d="M0 0 C3.89075454 1.29691818 6.52462743 2.66776769 9 6 C8.875 8.6875 8.875 8.6875 8 11 C7.01 11.495 7.01 11.495 6 12 C6 9.69 6 7.38 6 5 C5.195625 4.731875 4.39125 4.46375 3.5625 4.1875 C2.716875 3.795625 1.87125 3.40375 1 3 C0.67 2.01 0.34 1.02 0 0 Z " fill="#B18BD6" transform="translate(82,37)"/>
<path d="M0 0 C0.66 0 1.32 0 2 0 C2.33 1.65 2.66 3.3 3 5 C5.31 5.33 7.62 5.66 10 6 C10 6.66 10 7.32 10 8 C5.55129785 8.39253254 2.85756507 7.15305957 -1 5 C-0.67 3.35 -0.34 1.7 0 0 Z " fill="#321354" transform="translate(34,35)"/>
<path d="M0 0 C2.0625 0.4375 2.0625 0.4375 4 1 C3.67 3.31 3.34 5.62 3 8 C2.01 8 1.02 8 0 8 C-0.38063221 5.6739143 -0.71269945 3.33944736 -1 1 C-0.67 0.67 -0.34 0.34 0 0 Z " fill="#5D357D" transform="translate(90,105)"/>
<path d="M0 0 C0.66 0 1.32 0 2 0 C2 4.29 2 8.58 2 13 C1.34 13 0.68 13 0 13 C0.020625 11.9275 0.04125 10.855 0.0625 9.75 C0.01345128 6.8070768 -0.28127127 4.77223939 -1 2 C-0.67 1.34 -0.34 0.68 0 0 Z " fill="#784D9E" transform="translate(104,96)"/>
<path d="M0 0 C1.32 0.66 2.64 1.32 4 2 C2.66666667 3.33333333 1.33333333 4.66666667 0 6 C-0.99 6 -1.98 6 -3 6 C-3 5.01 -3 4.02 -3 3 C-4.32 3.33 -5.64 3.66 -7 4 C-7 3.34 -7 2.68 -7 2 C-4.69 2 -2.38 2 0 2 C0 1.34 0 0.68 0 0 Z " fill="#785796" transform="translate(24,90)"/>
<path d="M0 0 C0.33 0 0.66 0 1 0 C1.33 5.28 1.66 10.56 2 16 C0.68 16.33 -0.64 16.66 -2 17 C-2 16.01 -2 15.02 -2 14 C-1.34 14 -0.68 14 0 14 C-0.185625 13.360625 -0.37125 12.72125 -0.5625 12.0625 C-1.15333516 7.92665389 -0.58271759 4.1148827 0 0 Z " fill="#DCD7E0" transform="translate(39,93)"/>
<path d="M0 0 C2 1 2 1 3.125 3.125 C4.15945114 6.52391089 4.1385722 9.46640886 4 13 C3.01 13 2.02 13 1 13 C0.67 8.71 0.34 4.42 0 0 Z " fill="#48236F" transform="translate(101,97)"/>
<path d="M0 0 C0.33 0.66 0.66 1.32 1 2 C1.66 2 2.32 2 3 2 C3 2.66 3 3.32 3 4 C2.01 4 1.02 4 0 4 C-0.12375 4.639375 -0.2475 5.27875 -0.375 5.9375 C-0.58125 6.618125 -0.7875 7.29875 -1 8 C-1.99 8.495 -1.99 8.495 -3 9 C-3.33 6.36 -3.66 3.72 -4 1 C-2.68 0.67 -1.36 0.34 0 0 Z " fill="#9076A3" transform="translate(80,97)"/>
<path d="M0 0 C1.1549921 0.73581742 2.29874185 1.48930039 3.4375 2.25 C4.07558594 2.66765625 4.71367188 3.0853125 5.37109375 3.515625 C7.29902057 5.27248877 7.61479436 6.46089803 8 9 C7.401875 8.690625 6.80375 8.38125 6.1875 8.0625 C3.91043228 6.89790296 3.91043228 6.89790296 1 6 C0.67 4.02 0.34 2.04 0 0 Z " fill="#3F225D" transform="translate(36,42)"/>
<path d="M0 0 C3 1 3 1 4 3 C4.04022391 5.3329866 4.04320247 7.66706666 4 10 C3.01 9.67 2.02 9.34 1 9 C0.67 6.03 0.34 3.06 0 0 Z " fill="#85629D" transform="translate(96,96)"/>
<path d="M0 0 C2.31 0.66 4.62 1.32 7 2 C7.33 3.98 7.66 5.96 8 8 C7.67 7.34 7.34 6.68 7 6 C6.01 6 5.02 6 4 6 C4 5.34 4 4.68 4 4 C2.68 3.34 1.36 2.68 0 2 C0 1.34 0 0.68 0 0 Z " fill="#835BA1" transform="translate(22,101)"/>
<path d="M0 0 C1.875 1.25 1.875 1.25 2.875 4.25 C2.215 4.91 1.555 5.57 0.875 6.25 C0.545 5.26 0.215 4.27 -0.125 3.25 C-1.775 3.25 -3.425 3.25 -5.125 3.25 C-5.125 2.26 -5.125 1.27 -5.125 0.25 C-2.125 -0.75 -2.125 -0.75 0 0 Z " fill="#7F599F" transform="translate(54.125,98.75)"/>
<path d="M0 0 C3 1 3 1 4 3 C4.039992 4.99960012 4.04346799 7.00047242 4 9 C3.34 9 2.68 9 2 9 C0.14223235 5.86501708 -0.20140476 3.62528568 0 0 Z " fill="#6F4797" transform="translate(33,95)"/>
<path d="M0 0 C6.0546875 -0.1953125 6.0546875 -0.1953125 8 0 C10 2 10 2 10.125 4.625 C10.08375 5.40875 10.0425 6.1925 10 7 C9.67 5.68 9.34 4.36 9 3 C6.03 2.67 3.06 2.34 0 2 C0 1.34 0 0.68 0 0 Z " fill="#B793DC" transform="translate(71,35)"/>
<path d="M0 0 C1.60379341 -0.05416188 3.20811406 -0.09286638 4.8125 -0.125 C5.70582031 -0.14820312 6.59914063 -0.17140625 7.51953125 -0.1953125 C10 0 10 0 13 2 C10 3 10 3 6.5625 2.4375 C3.02360825 2.00289926 1.86516192 2.0516899 -1 4 C-0.67 2.68 -0.34 1.36 0 0 Z " fill="#40245D" transform="translate(65,68)"/>
<path d="M0 0 C2.4375 0.6875 2.4375 0.6875 5 2 C5.8125 4.625 5.8125 4.625 6 7 C3.53199953 5.84826645 1.95216435 4.95216435 0 3 C0 2.01 0 1.02 0 0 Z " fill="#9F49AC" transform="translate(83,40)"/>
<path d="M0 0 C2.97 0 5.94 0 9 0 C9 0.99 9 1.98 9 3 C6.69 3 4.38 3 2 3 C2 2.34 2 1.68 2 1 C1.34 0.67 0.68 0.34 0 0 Z " fill="#8B64C4" transform="translate(58,37)"/>
<path d="M0 0 C-0.33 1.32 -0.66 2.64 -1 4 C-3.97 3.505 -3.97 3.505 -7 3 C-7 2.34 -7 1.68 -7 1 C-4.53721199 -0.231394 -2.7204945 -0.07159196 0 0 Z " fill="#6F499B" transform="translate(92,93)"/>
<path d="M0 0 C1.32 0 2.64 0 4 0 C4 0.66 4 1.32 4 2 C4.66 2.33 5.32 2.66 6 3 C5.34 4.65 4.68 6.3 4 8 C3.34 7.67 2.68 7.34 2 7 C2.04125 6.21625 2.0825 5.4325 2.125 4.625 C2.28728734 1.83883881 2.28728734 1.83883881 0 0 Z " fill="#604A76" transform="translate(68,55)"/>
<path d="M0 0 C-0.33 1.65 -0.66 3.3 -1 5 C-1.33 4.34 -1.66 3.68 -2 3 C-3.65 3 -5.3 3 -7 3 C-7.33 2.34 -7.66 1.68 -8 1 C-5.10765685 0.17361624 -3.11257569 0 0 0 Z " fill="#60369B" transform="translate(46,38)"/>
<path d="M0 0 C-1.485 1.485 -1.485 1.485 -3 3 C-3.33 2.67 -3.66 2.34 -4 2 C-5.51928038 1.92820036 -7.04167482 1.91607993 -8.5625 1.9375 C-9.80193359 1.95103516 -9.80193359 1.95103516 -11.06640625 1.96484375 C-12.02353516 1.98224609 -12.02353516 1.98224609 -13 2 C-13 1.34 -13 0.68 -13 0 C-8.37078475 -1.0161692 -4.65537393 -0.83796731 0 0 Z " fill="#553873" transform="translate(83,34)"/>
<path d="M0 0 C0.99 0 1.98 0 3 0 C1.125 4.75 1.125 4.75 0 7 C-0.99 7 -1.98 7 -3 7 C-1.125 1.125 -1.125 1.125 0 0 Z " fill="#493162" transform="translate(32,23)"/>
<path d="M0 0 C2.97 0 5.94 0 9 0 C9.33 0.99 9.66 1.98 10 3 C5.545 3.495 5.545 3.495 1 4 C2.32 3.34 3.64 2.68 5 2 C3.35 1.67 1.7 1.34 0 1 C0 0.67 0 0.34 0 0 Z " fill="#827194" transform="translate(65,22)"/>
<path d="M0 0 C0.99 0.33 1.98 0.66 3 1 C2.67 2.65 2.34 4.3 2 6 C0.68 5.67 -0.64 5.34 -2 5 C-2 4.34 -2 3.68 -2 3 C-1.34 3 -0.68 3 0 3 C0 2.01 0 1.02 0 0 Z " fill="#CAC1D3" transform="translate(49,103)"/>
<path d="M0 0 C0.33 0 0.66 0 1 0 C0.56179109 4.55737263 0.14958831 7.57653445 -3 11 C-4 8 -4 8 -3.22265625 5.95703125 C-2.83980469 5.24933594 -2.45695312 4.54164062 -2.0625 3.8125 C-1.68222656 3.09707031 -1.30195312 2.38164063 -0.91015625 1.64453125 C-0.60980469 1.10183594 -0.30945313 0.55914062 0 0 Z " fill="#533A6F" transform="translate(96,57)"/>
<path d="M0 0 C0.66 0.33 1.32 0.66 2 1 C1.67 1.99 1.34 2.98 1 4 C0.65772583 5.33106622 0.32248257 6.66400079 0 8 C-0.66 8 -1.32 8 -2 8 C-2 7.34 -2 6.68 -2 6 C-2.66 5.67 -3.32 5.34 -4 5 C-3.34 5 -2.68 5 -2 5 C-1.7834375 4.0409375 -1.7834375 4.0409375 -1.5625 3.0625 C-1 1 -1 1 0 0 Z " fill="#827193" transform="translate(78,58)"/>
<path d="M0 0 C2.7972908 2.06756277 3.02692273 3.14440371 3.6875 6.6875 C3.790625 7.780625 3.89375 8.87375 4 10 C3.67 9.01 3.34 8.02 3 7 C2.34 7 1.68 7 1 7 C-0.0625 4.625 -0.0625 4.625 -1 2 C-0.67 1.34 -0.34 0.68 0 0 Z " fill="#4F3569" transform="translate(93,43)"/>
<path d="M0 0 C1.2065625 0.0309375 1.2065625 0.0309375 2.4375 0.0625 C2.7675 1.0525 3.0975 2.0425 3.4375 3.0625 C2.4475 3.3925 1.4575 3.7225 0.4375 4.0625 C0.4375 3.4025 0.4375 2.7425 0.4375 2.0625 C-1.89325929 3.02115509 -1.89325929 3.02115509 -3.5625 6.0625 C-3.605221 4.39638095 -3.60313832 2.72867115 -3.5625 1.0625 C-2.5625 0.0625 -2.5625 0.0625 0 0 Z " fill="#C6BDCE" transform="translate(51.5625,35.9375)"/>
<path d="M0 0 C2.64 0.33 5.28 0.66 8 1 C8 1.99 8 2.98 8 4 C2.25 3.125 2.25 3.125 0 2 C0 1.34 0 0.68 0 0 Z " fill="#4D3566" transform="translate(48,23)"/>
<path d="M0 0 C1.9375 0.3125 1.9375 0.3125 4 1 C5 4 5 4 4.0625 6.1875 C3.5365625 7.0846875 3.5365625 7.0846875 3 8 C3 6.68 3 5.36 3 4 C1.68 3.67 0.36 3.34 -1 3 C-0.67 2.01 -0.34 1.02 0 0 Z " fill="#8A7F97" transform="translate(104,89)"/>
<path d="M0 0 C0.66 0 1.32 0 2 0 C2 0.99 2 1.98 2 3 C2.99 3 3.98 3 5 3 C4.67 4.32 4.34 5.64 4 7 C3.34 7 2.68 7 2 7 C1.896875 6.360625 1.79375 5.72125 1.6875 5.0625 C1.460625 4.381875 1.23375 3.70125 1 3 C0.01 2.67 -0.98 2.34 -2 2 C-1.34 2 -0.68 2 0 2 C0 1.34 0 0.68 0 0 Z " fill="#644381" transform="translate(91,90)"/>
<path d="M0 0 C0.66 0 1.32 0 2 0 C2 0.66 2 1.32 2 2 C2.66 2.33 3.32 2.66 4 3 C3.01 3.66 2.02 4.32 1 5 C0.67 5.99 0.34 6.98 0 8 C-0.66 8 -1.32 8 -2 8 C-1.125 2.25 -1.125 2.25 0 0 Z " fill="#482E62" transform="translate(76,55)"/>
<path d="M0 0 C2 2 2 2 2 5 C0.02 5 -1.96 5 -4 5 C-3 2 -3 2 0 0 Z " fill="#401D78" transform="translate(86,53)"/>
<path d="M0 0 C0.66 0 1.32 0 2 0 C2 1.98 2 3.96 2 6 C1.34 6 0.68 6 0 6 C-0.33 6.99 -0.66 7.98 -1 9 C-1.09765625 2.84765625 -1.09765625 2.84765625 -1 1 C-0.67 0.67 -0.34 0.34 0 0 Z " fill="#4D3666" transform="translate(34,29)"/>
<path d="M0 0 C3 3.75 3 3.75 3 6 C2.01 6.33 1.02 6.66 0 7 C-0.66 5.35 -1.32 3.7 -2 2 C-1.34 1.34 -0.68 0.68 0 0 Z " fill="#684581" transform="translate(97,108)"/>
<path d="M0 0 C1.65 0 3.3 0 5 0 C5.33 0.66 5.66 1.32 6 2 C5.34 2.66 4.68 3.32 4 4 C3.01 3.67 2.02 3.34 1 3 C0.34 3.66 -0.32 4.32 -1 5 C-0.67 3.35 -0.34 1.7 0 0 Z " fill="#8B7E99" transform="translate(33,90)"/>
<path d="M0 0 C-2.68841859 2.25245881 -4.64641875 3.88213958 -8 5 C-8 4.01 -8 3.02 -8 2 C-3.71900826 -1.23966942 -3.71900826 -1.23966942 0 0 Z " fill="#4D3067" transform="translate(92,70)"/>
<path d="M0 0 C3.16130459 4.21507278 3.3367697 5.06071112 3 10 C2.34 10 1.68 10 1 10 C0.67 6.7 0.34 3.4 0 0 Z " fill="#AE8DD4" transform="translate(92,46)"/>
<path d="M0 0 C1.32 0 2.64 0 4 0 C4 0.66 4 1.32 4 2 C3.01 2 2.02 2 1 2 C1.33 3.32 1.66 4.64 2 6 C1.34 6 0.68 6 0 6 C0 5.34 0 4.68 0 4 C-0.66 4 -1.32 4 -2 4 C-1.34 2.68 -0.68 1.36 0 0 Z " fill="#493261" transform="translate(81,17)"/>
<path d="M0 0 C1.65 0 3.3 0 5 0 C5 0.66 5 1.32 5 2 C6.65 2 8.3 2 10 2 C9.67 2.66 9.34 3.32 9 4 C6.36 3.67 3.72 3.34 1 3 C0.67 2.01 0.34 1.02 0 0 Z " fill="#806198" transform="translate(85,111)"/>
<path d="M0 0 C0.33 0 0.66 0 1 0 C1 2.97 1 5.94 1 9 C0.01 9.495 0.01 9.495 -1 10 C-2.15837626 5.94568308 -1.83691257 3.78187881 0 0 Z " fill="#6A597C" transform="translate(108,93)"/>
<path d="M0 0 C1.98 0 3.96 0 6 0 C6.33 1.32 6.66 2.64 7 4 C4.03 3.505 4.03 3.505 1 3 C0.67 2.01 0.34 1.02 0 0 Z " fill="#655377" transform="translate(86,98)"/>
<path d="M0 0 C0.66 0 1.32 0 2 0 C1.37240135 2.92879371 0.41377341 5.36095629 -1 8 C-1.66 7.67 -2.32 7.34 -3 7 C-2.01 4.69 -1.02 2.38 0 0 Z " fill="#B28BD7" transform="translate(93,58)"/>
<path d="M0 0 C0.66 0 1.32 0 2 0 C2 0.66 2 1.32 2 2 C2.66 2 3.32 2 4 2 C3.67 2.99 3.34 3.98 3 5 C1.68 4.67 0.36 4.34 -1 4 C-0.67 2.68 -0.34 1.36 0 0 Z " fill="#2F144C" transform="translate(50,38)"/>
<path d="M0 0 C1.32 0.33 2.64 0.66 4 1 C3.67 2.65 3.34 4.3 3 6 C2.01 5.67 1.02 5.34 0 5 C0 4.34 0 3.68 0 3 C-0.66 2.67 -1.32 2.34 -2 2 C-1.34 2 -0.68 2 0 2 C0 1.34 0 0.68 0 0 Z " fill="#442069" transform="translate(17,95)"/>
<path d="M0 0 C1.32 0 2.64 0 4 0 C3.67 1.98 3.34 3.96 3 6 C2.01 5.34 1.02 4.68 0 4 C0 2.68 0 1.36 0 0 Z " fill="#411C75" transform="translate(84,60)"/>
<path d="M0 0 C2.3125 0.1875 2.3125 0.1875 4 1 C-1.625 5 -1.625 5 -5 5 C-2.75 2.4375 -2.75 2.4375 0 0 Z " fill="#D8D2DD" transform="translate(38,22)"/>
</svg>
